<?xml version="1.0" standalone="no"?>
<!DOCTYPE svg PUBLIC "-//W3C//DTD SVG 20010904//EN"
 "http://www.w3.org/TR/2001/REC-SVG-20010904/DTD/svg10.dtd">
<svg version="1.0" xmlns="http://www.w3.org/2000/svg"
 width="117.000000pt" height="102.000000pt" viewBox="0 0 117.000000 102.000000"
 preserveAspectRatio="xMidYMid meet">
<metadata>
Created by potrace 1.13, written by Peter Selinger 2001-2015
</metadata>
<g transform="translate(0.000000,102.000000) scale(0.100000,-0.100000)"
fill="#000000" >
<path d="M461 886 c-16 -36 -33 -66 -38 -66 -4 0 -30 7 -57 15 -27 8 -53 15
-58 15 -8 0 -3 -70 8 -112 4 -12 -11 -21 -65 -40 l-70 -23 29 -65 c16 -36 30
-71 30 -79 0 -7 -18 -35 -40 -61 -22 -26 -40 -50 -40 -53 0 -4 32 -25 70 -48
39 -23 72 -45 75 -48 2 -4 -3 -34 -11 -65 -8 -32 -13 -60 -10 -63 3 -3 41 1
85 9 l79 14 25 -50 26 -51 0 60 1 60 -58 31 c-207 111 -202 388 10 493 196 98
428 -39 428 -254 0 -67 -46 -163 -98 -203 -36 -28 -94 -62 -107 -62 -9 0 -1
129 9 155 7 18 6 18 -4 2 -6 -9 -22 -17 -35 -17 -20 0 -25 5 -25 25 0 14 -4
25 -9 25 -5 0 -17 3 -27 7 -14 5 -16 2 -12 -20 5 -25 3 -27 -28 -27 -30 0 -34
3 -34 25 0 16 -6 25 -16 25 -12 0 -15 -6 -10 -22 4 -13 9 -36 13 -53 3 -16 10
-33 15 -36 4 -3 10 -69 12 -146 2 -78 9 -150 15 -162 13 -24 36 -29 27 -5 -3
8 -11 78 -16 155 -10 121 -9 142 5 161 14 21 15 15 15 -87 0 -147 9 -215 27
-215 11 0 13 11 9 53 -3 28 -8 100 -12 159 -5 87 -3 108 8 108 26 0 38 -54 37
-171 0 -132 4 -149 38 -149 24 0 24 1 18 55 -7 54 -1 67 23 43 8 -8 14 -5 21
13 5 13 18 45 30 71 l20 47 65 -6 64 -6 -5 83 -6 83 52 46 52 46 -49 49 -50
48 20 70 c11 38 18 72 15 74 -3 3 -37 8 -75 11 l-71 6 -22 66 c-12 36 -25 69
-28 74 -4 4 -43 -8 -86 -27 l-79 -34 -38 51 c-22 29 -43 53 -48 55 -5 2 -23
-26 -39 -62z"/>
<path d="M447 709 c-24 -14 -49 -73 -40 -96 22 -63 99 -85 141 -40 66 70 -20
183 -101 136z m71 -37 c4 -26 -17 -37 -53 -28 -15 4 -25 14 -25 25 0 26 10 32
45 29 22 -2 31 -9 33 -26z"/>
<path d="M673 699 c-34 -10 -63 -51 -63 -89 0 -36 53 -80 95 -80 44 0 95 45
95 83 0 30 -45 87 -68 87 -15 -1 -15 -2 1 -11 39 -23 8 -76 -38 -65 -32 8 -34
47 -2 69 25 18 24 19 -20 6z"/>
</g>
</svg>
