<?xml version="1.0" standalone="no"?>
<!DOCTYPE svg PUBLIC "-//W3C//DTD SVG 20010904//EN"
 "http://www.w3.org/TR/2001/REC-SVG-20010904/DTD/svg10.dtd">
<svg version="1.0" xmlns="http://www.w3.org/2000/svg"
 width="117.000000pt" height="102.000000pt" viewBox="0 0 117.000000 102.000000"
 preserveAspectRatio="xMidYMid meet">
<metadata>
Created by potrace 1.13, written by Peter Selinger 2001-2015
</metadata>
<g transform="translate(0.000000,102.000000) scale(0.100000,-0.100000)"
fill="#000000" stroke="none">
<path d="M464 875 c-16 -36 -31 -65 -35 -65 -3 0 -32 9 -63 20 l-58 20 7 -68
7 -68 -64 -19 c-35 -10 -64 -20 -66 -21 -2 -1 11 -32 27 -69 17 -37 31 -72 31
-77 0 -6 -19 -33 -42 -61 -39 -46 -41 -51 -25 -61 10 -6 45 -28 77 -48 l59
-37 -15 -53 c-21 -80 -23 -77 59 -62 39 8 77 14 82 14 16 0 59 -110 61 -153 1
-21 8 -45 17 -54 19 -19 52 -10 43 13 -10 25 -20 268 -12 297 5 23 12 27 40
27 42 0 45 -9 47 -165 2 -127 5 -145 25 -145 12 0 14 12 11 60 -2 33 -2 60 0
60 2 0 14 -7 27 -15 23 -16 24 -15 49 47 l25 63 67 0 68 0 -7 82 -6 81 51 43
50 42 -47 48 -48 49 17 64 c22 84 22 86 -12 86 -15 0 -48 3 -73 6 l-45 6 -22
69 c-12 38 -26 69 -30 69 -5 0 -38 -13 -74 -30 -37 -16 -72 -30 -79 -30 -7 0
-29 23 -48 50 -19 27 -38 50 -41 50 -4 0 -20 -29 -35 -65z m246 -106 c103 -45
170 -147 170 -259 0 -76 -21 -129 -73 -187 -46 -50 -125 -92 -139 -72 -11 17
-3 118 11 132 6 6 11 16 11 21 0 6 -5 3 -11 -6 -5 -10 -21 -18 -34 -18 -20 0
-25 5 -25 24 0 18 -7 25 -26 29 -23 4 -25 2 -21 -19 4 -21 1 -24 -29 -24 -27
0 -34 4 -34 20 0 11 -7 20 -15 20 -11 0 -12 -5 -5 -26 6 -14 10 -57 10 -95 0
-68 -1 -70 -22 -64 -65 20 -136 87 -169 159 -27 60 -25 157 5 221 24 52 83
112 136 140 73 38 177 39 260 4z"/>
<path d="M455 708 c-52 -28 -62 -92 -20 -133 50 -51 135 -15 135 57 -1 37 -14
59 -47 76 -27 15 -42 15 -68 0z"/>
<path d="M638 670 c-25 -26 -29 -36 -24 -63 20 -106 178 -99 178 8 0 30 -6 45
-27 62 -14 13 -31 23 -38 23 -7 0 -4 -5 6 -11 39 -23 8 -76 -38 -65 -30 8 -35
49 -7 65 16 10 16 10 -1 11 -10 0 -32 -14 -49 -30z"/>
</g>
</svg>
